<svg xmlns="http://www.w3.org/2000/svg" width="640" height="200" viewBox="0 0 640 200" role="img" aria-label="BookKing">
  <defs>
    <linearGradient id="bg" x1="0" y1="0" x2="0" y2="1">
      <stop offset="0%" stop-color="#FCFBF8"/>
      <stop offset="100%" stop-color="#F1EDE5"/>
    </linearGradient>
  </defs>
  <rect width="640" height="200" fill="url(#bg)"/>
  <rect x="0.5" y="0.5" width="639" height="199" fill="none" stroke="#C9C1B2"/>
  <rect x="0" y="0" width="5" height="200" fill="#B87333"/>
  <g transform="translate(40, 52)">
    <line x1="0" y1="0" x2="64" y2="0" stroke="#1A1814" stroke-width="2"/>
    <line x1="0" y1="6" x2="64" y2="6" stroke="#1A1814" stroke-width="2"/>
    <text x="0" y="48" fill="#1A1814" font-family="Georgia, serif" font-weight="500" letter-spacing="-0.5">
      <tspan font-size="42">Book</tspan>
      <tspan font-size="58" font-weight="600" dx="4">K</tspan>
      <tspan font-size="42" dx="3">&#305;</tspan>
      <tspan font-size="42">ng</tspan>
    </text>
    <g transform="translate(186, 6)" fill="#B87333">
      <path d="M0 11h17v2H0v-2zm1.2-2 2.2-5.5 2.7 3.3L8.5 3l2.5 3.6 2.7-3.3 2.2 5.5H1.2z"/>
    </g>
    <line x1="0" y1="62" x2="220" y2="62" stroke="#B87333" stroke-width="1.25"/>
    <text x="0" y="92" fill="#6E675C" font-family="Georgia, serif" font-size="16" font-style="italic">A self-hosted book of accounts</text>
  </g>
  <g transform="translate(400, 48)">
    <line x1="0" y1="72" x2="200" y2="72" stroke="#C9C1B2"/>
    <rect x="12" y="42" width="14" height="30" fill="#B87333"/>
    <rect x="36" y="28" width="14" height="44" fill="#96591F"/>
    <rect x="60" y="50" width="14" height="22" fill="#B87333"/>
    <rect x="84" y="72" width="14" height="34" fill="#2C3E50"/>
    <rect x="108" y="72" width="14" height="48" fill="#2C3E50"/>
    <rect x="132" y="72" width="14" height="26" fill="#4E6E81"/>
    <rect x="156" y="72" width="14" height="38" fill="#2C3E50"/>
  </g>
</svg>
